<?xml version="1.0" encoding="utf-8"?>
<!-- Generator: Adobe Illustrator 22.0.1, SVG Export Plug-In . SVG Version: 6.00 Build 0)  -->
<svg version="1.1" id="Layer_1" xmlns="http://www.w3.org/2000/svg" xmlns:xlink="http://www.w3.org/1999/xlink" x="0px" y="0px"
	 viewBox="0 0 201.9 46.3" style="enable-background:new 0 0 201.9 46.3;" xml:space="preserve">
<style type="text/css">
	.st0{fill:#F5F5F5;}
	.st1{fill-rule:evenodd;clip-rule:evenodd;fill:url(#SVGID_1_);}
	.st2{fill-rule:evenodd;clip-rule:evenodd;fill:#FFFFFF;}
</style>
<path class="st0" d="M178.8,46.3H23.1C10.4,46.3,0,35.8,0,23.1v0C0,10.4,10.4,0,23.1,0l155.7,0c12.7,0,23.1,10.4,23.1,23.1v0
	C201.9,35.8,191.5,46.3,178.8,46.3z"/>
<linearGradient id="SVGID_1_" gradientUnits="userSpaceOnUse" x1="158.8817" y1="23.125" x2="198.8689" y2="23.125">
	<stop  offset="1.027034e-07" style="stop-color:#FFCB05"/>
	<stop  offset="1" style="stop-color:#FDB817"/>
</linearGradient>
<path class="st1" d="M178.9,3.1c11,0,20,9,20,20c0,11-9,20-20,20s-20-9-20-20C158.9,12.1,167.8,3.1,178.9,3.1L178.9,3.1z"/>
<g>
	<path class="st2" d="M178.9,20.3h0.3c1.1,0,1.9,0.9,1.9,1.9v4.6c0,1.1-0.9,1.9-1.9,1.9h-0.3c-1.1,0-1.9-0.9-1.9-1.9v-4.6
		C176.9,21.2,177.8,20.3,178.9,20.3L178.9,20.3z"/>
	<polygon class="st2" points="179.5,22.6 189,22.6 189,26.5 179.5,26.5 179.5,22.6 	"/>
	<polygon class="st2" points="168.4,30.9 189.9,30.9 189.9,34.8 168.4,34.8 168.4,30.9 	"/>
	<polygon class="st2" points="168.4,34.8 168.4,17.8 172.4,17.8 172.4,34.8 168.4,34.8 	"/>
	<polygon class="st2" points="186.1,26.5 186.1,17.8 190,17.8 190,26.5 186.1,26.5 	"/>
	<polygon class="st2" points="168.4,18 179,7.4 181.8,10.2 171.2,20.8 168.4,18 	"/>
	<polygon class="st2" points="190,18 179.4,7.4 176.6,10.2 187.2,20.8 190,18 	"/>
</g>
<path d="M20.1,24.7h-3V13h-3.9v-2.5h10.7V13h-3.9V24.7L20.1,24.7z M34.3,24.7h-8.2V10.5h8.2v2.5h-5.2v3.1H34v2.5h-4.8v3.7h5.2V24.7
	L34.3,24.7z M48.5,24.7h-3V13h-5.2v11.7h-3V10.5h11.2V24.7L48.5,24.7z M63.4,24.7h-3V13h-3.5l-0.2,1.3c-0.4,3.3-0.8,5.6-1.1,7
	c-0.3,1.3-0.8,2.3-1.3,2.8c-0.6,0.5-1.4,0.8-2.4,0.8c-0.5,0-1-0.1-1.4-0.2v-2.5c0.4,0.1,0.7,0.2,1.1,0.2c0.3,0,0.6-0.2,0.8-0.5
	c0.2-0.3,0.4-0.9,0.6-1.8c0.2-0.9,0.4-2.3,0.7-4.2c0.3-1.9,0.5-3.8,0.8-5.5h9V24.7L63.4,24.7z M79.9,17.6c0,2.4-0.6,4.2-1.7,5.4
	c-1.2,1.3-2.8,1.9-5,1.9c-2.2,0-3.9-0.6-5-1.9c-1.2-1.3-1.7-3.1-1.7-5.4c0-2.4,0.6-4.2,1.8-5.4c1.2-1.2,2.8-1.9,5-1.9
	c2.2,0,3.9,0.6,5,1.9C79.3,13.4,79.9,15.2,79.9,17.6L79.9,17.6z M69.5,17.6c0,1.6,0.3,2.8,0.9,3.6c0.6,0.8,1.5,1.2,2.7,1.2
	c2.4,0,3.6-1.6,3.6-4.8c0-3.2-1.2-4.8-3.6-4.8c-1.2,0-2.1,0.4-2.7,1.2C69.8,14.8,69.5,16,69.5,17.6L69.5,17.6z M99.6,24.7h-3.4
	L91,17.5v7.2h-3V10.5h3v6.9l5.1-6.9h3.2l-5.2,6.8L99.6,24.7L99.6,24.7z M106.5,10.5h4.4c2,0,3.5,0.3,4.4,0.9
	c0.9,0.6,1.4,1.5,1.4,2.7c0,0.8-0.2,1.5-0.6,2.1c-0.4,0.5-0.9,0.9-1.6,1v0.1c0.9,0.2,1.5,0.6,1.9,1.1c0.4,0.6,0.6,1.3,0.6,2.2
	c0,1.3-0.5,2.3-1.4,3c-0.9,0.7-2.2,1.1-3.8,1.1h-5.3V10.5L106.5,10.5z M109.5,16.1h1.8c0.8,0,1.4-0.1,1.8-0.4
	c0.4-0.3,0.5-0.7,0.5-1.3c0-0.5-0.2-0.9-0.6-1.2c-0.4-0.2-1-0.4-1.9-0.4h-1.6V16.1L109.5,16.1z M109.5,18.5v3.7h2
	c0.8,0,1.4-0.2,1.8-0.5c0.4-0.3,0.6-0.8,0.6-1.5c0-1.2-0.8-1.8-2.5-1.8H109.5L109.5,18.5z M128.6,24.7l-1-3.4h-5.2l-1,3.4h-3.2
	l5-14.3h3.7l5,14.3H128.6L128.6,24.7z M126.9,18.8c-1-3.1-1.5-4.8-1.6-5.2c-0.1-0.4-0.2-0.7-0.3-1c-0.2,0.8-0.8,2.9-1.8,6.2H126.9
	L126.9,18.8z M139.7,24.7l-3.4-11.2h-0.1c0.1,2.3,0.2,3.8,0.2,4.5v6.6h-2.7V10.5h4.1l3.4,10.9h0.1l3.6-10.9h4.1v14.2H146v-6.7
	c0-0.3,0-0.7,0-1.1c0-0.4,0.1-1.5,0.1-3.3h-0.1l-3.7,11.1H139.7L139.7,24.7z"/>
<path d="M41.2,33.9c0,0.8-0.5,1.3-1.4,1.4v0c0.5,0.1,0.9,0.2,1.2,0.5c0.3,0.3,0.4,0.6,0.4,1c0,0.6-0.2,1.1-0.7,1.4
	c-0.5,0.3-1.2,0.5-2.1,0.5h-3.2v-6.6h3.1C40.4,32.2,41.2,32.7,41.2,33.9L41.2,33.9z M40,36.8c0-0.3-0.1-0.5-0.4-0.7
	c-0.2-0.1-0.6-0.2-1.1-0.2h-1.6v1.9h1.7C39.5,37.8,40,37.4,40,36.8L40,36.8z M39.8,34c0-0.3-0.1-0.5-0.3-0.6
	c-0.2-0.1-0.5-0.2-0.9-0.2h-1.7v1.6h1.5c0.5,0,0.8-0.1,1.1-0.2C39.7,34.5,39.8,34.3,39.8,34L39.8,34z M45.5,38.9
	c-1,0-1.8-0.3-2.3-0.9c-0.5-0.6-0.8-1.4-0.8-2.5c0-1.1,0.3-2,0.8-2.6c0.5-0.6,1.3-0.9,2.4-0.9c0.7,0,1.3,0.1,1.9,0.4l-0.4,1.1
	c-0.6-0.2-1.1-0.3-1.5-0.3c-1.1,0-1.7,0.8-1.7,2.3c0,0.7,0.1,1.3,0.4,1.7c0.3,0.4,0.7,0.6,1.3,0.6c0.6,0,1.2-0.2,1.8-0.5v1.2
	c-0.3,0.1-0.5,0.3-0.8,0.3C46.3,38.9,46,38.9,45.5,38.9L45.5,38.9z M51.8,38.9c-1,0-1.8-0.3-2.4-0.9c-0.6-0.6-0.9-1.4-0.9-2.5
	c0-1.1,0.3-1.9,0.8-2.5c0.5-0.6,1.3-0.9,2.2-0.9c0.9,0,1.6,0.3,2.1,0.8c0.5,0.5,0.8,1.3,0.8,2.2v0.8H50c0,0.6,0.2,1.1,0.5,1.5
	c0.3,0.3,0.8,0.5,1.4,0.5c0.4,0,0.8,0,1.1-0.1c0.3-0.1,0.7-0.2,1.1-0.4v1.1c-0.3,0.2-0.7,0.3-1,0.3C52.7,38.9,52.3,38.9,51.8,38.9
	L51.8,38.9z M51.6,33.1c-0.4,0-0.8,0.1-1.1,0.4c-0.3,0.3-0.4,0.7-0.5,1.2h3c0-0.5-0.1-1-0.4-1.2C52.4,33.3,52,33.1,51.6,33.1
	L51.6,33.1z M65.5,41.1h-1.3v-2.3h-4.5v2.3h-1.3v-3.4h0.5c0.5-0.7,0.8-1.5,1.1-2.4c0.3-1,0.4-2,0.5-3.1h4v5.5h1V41.1L65.5,41.1z
	 M63.2,37.7v-4.4h-1.4c-0.1,0.8-0.2,1.6-0.5,2.4c-0.2,0.8-0.5,1.5-0.9,2H63.2L63.2,37.7z M72.2,38.8h-1.4v-5.5h-1.8
	c-0.1,1.4-0.3,2.5-0.5,3.3c-0.2,0.8-0.4,1.4-0.7,1.7c-0.3,0.4-0.7,0.6-1.2,0.6c-0.3,0-0.6,0-0.8-0.1v-1.1c0.1,0.1,0.3,0.1,0.4,0.1
	c0.4,0,0.7-0.5,1-1.4c0.2-0.9,0.4-2.3,0.5-4.2h4.4V38.8L72.2,38.8z M74.9,38.8h-1.6l1.8-2.7c-0.4-0.1-0.8-0.4-1.1-0.7
	c-0.3-0.3-0.4-0.7-0.4-1.2c0-0.6,0.2-1.1,0.7-1.5c0.4-0.4,1.1-0.5,1.8-0.5h3v6.6h-1.4v-2.5h-1.3L74.9,38.8L74.9,38.8z M75.1,34.2
	c0,0.3,0.1,0.6,0.4,0.8c0.3,0.2,0.6,0.3,1,0.3h1.3v-2h-1.5c-0.4,0-0.7,0.1-0.9,0.2C75.2,33.7,75.1,33.9,75.1,34.2L75.1,34.2z
	 M90.3,35.5c0,1.1-0.3,1.9-0.8,2.5c-0.6,0.6-1.3,0.9-2.3,0.9c-0.6,0-1.2-0.1-1.6-0.4c-0.5-0.3-0.8-0.7-1.1-1.2
	c-0.3-0.5-0.4-1.1-0.4-1.8c0-1.1,0.3-1.9,0.8-2.5c0.6-0.6,1.3-0.9,2.3-0.9c1,0,1.7,0.3,2.3,0.9C90,33.6,90.3,34.4,90.3,35.5
	L90.3,35.5z M85.4,35.5c0,1.5,0.6,2.3,1.7,2.3c1.1,0,1.7-0.8,1.7-2.3c0-1.5-0.6-2.3-1.7-2.3c-0.6,0-1,0.2-1.3,0.6
	C85.6,34.2,85.4,34.8,85.4,35.5L85.4,35.5z M96.7,32.2v1.1h-2.2v5.5h-1.4v-5.5H91v-1.1H96.7L96.7,32.2z M103.7,35.5
	c0,1.1-0.3,1.9-0.8,2.5c-0.6,0.6-1.3,0.9-2.3,0.9c-0.6,0-1.2-0.1-1.6-0.4c-0.5-0.3-0.8-0.7-1.1-1.2c-0.3-0.5-0.4-1.1-0.4-1.8
	c0-1.1,0.3-1.9,0.8-2.5c0.6-0.6,1.3-0.9,2.3-0.9c1,0,1.7,0.3,2.3,0.9C103.4,33.6,103.7,34.4,103.7,35.5L103.7,35.5z M98.9,35.5
	c0,1.5,0.6,2.3,1.7,2.3c1.1,0,1.7-0.8,1.7-2.3c0-1.5-0.6-2.3-1.7-2.3c-0.6,0-1,0.2-1.3,0.6C99,34.2,98.9,34.8,98.9,35.5L98.9,35.5z
	 M111.1,32.2v6.6h-1.4v-5.5h-3v5.5h-1.4v-6.6H111.1L111.1,32.2z M118.6,38.8h-1.4v-5.5h-1.8c-0.1,1.4-0.3,2.5-0.5,3.3
	c-0.2,0.8-0.4,1.4-0.7,1.7c-0.3,0.4-0.7,0.6-1.2,0.6c-0.3,0-0.6,0-0.8-0.1v-1.1c0.1,0.1,0.3,0.1,0.4,0.1c0.4,0,0.7-0.5,1-1.4
	c0.2-0.9,0.4-2.3,0.5-4.2h4.4V38.8L118.6,38.8z M123.5,38.9c-1,0-1.8-0.3-2.4-0.9c-0.6-0.6-0.9-1.4-0.9-2.5c0-1.1,0.3-1.9,0.8-2.5
	c0.5-0.6,1.3-0.9,2.2-0.9c0.9,0,1.6,0.3,2.1,0.8c0.5,0.5,0.8,1.3,0.8,2.2v0.8h-4.4c0,0.6,0.2,1.1,0.5,1.5c0.3,0.3,0.8,0.5,1.4,0.5
	c0.4,0,0.8,0,1.1-0.1c0.3-0.1,0.7-0.2,1.1-0.4v1.1c-0.3,0.2-0.7,0.3-1,0.3C124.3,38.9,123.9,38.9,123.5,38.9L123.5,38.9z
	 M123.2,33.1c-0.4,0-0.8,0.1-1.1,0.4c-0.3,0.3-0.4,0.7-0.5,1.2h3c0-0.5-0.1-1-0.4-1.2C124,33.3,123.6,33.1,123.2,33.1L123.2,33.1z
	 M129,32.2v2.7h3.1v-2.7h1.4v6.6h-1.4v-2.9H129v2.9h-1.4v-6.6H129L129,32.2z M136.9,32.2v3.4c0,0.4,0,1-0.1,1.7l3.3-5.1h1.7v6.6
	h-1.4v-3.3c0-0.2,0-0.5,0-0.9c0-0.4,0-0.7,0.1-0.9l-3.3,5.1h-1.7v-6.6H136.9L136.9,32.2z M144.5,38.8h-1.6l1.8-2.7
	c-0.4-0.1-0.8-0.4-1.1-0.7c-0.3-0.3-0.4-0.7-0.4-1.2c0-0.6,0.2-1.1,0.7-1.5c0.4-0.4,1.1-0.5,1.8-0.5h3v6.6h-1.4v-2.5h-1.3
	L144.5,38.8L144.5,38.8z M144.7,34.2c0,0.3,0.1,0.6,0.4,0.8c0.3,0.2,0.6,0.3,1,0.3h1.3v-2h-1.5c-0.4,0-0.7,0.1-0.9,0.2
	C144.8,33.7,144.7,33.9,144.7,34.2L144.7,34.2z"/>
</svg>
